<?xml version="1.0" ?><!DOCTYPE svg  PUBLIC '-//W3C//DTD SVG 1.1//EN'  'http://www.w3.org/Graphics/SVG/1.1/DTD/svg11.dtd'><svg enable-background="new 0 0 128 128" height="128px" id="Layer_1" version="1.1" viewBox="0 0 128 128" width="128px" xml:space="preserve" xmlns="http://www.w3.org/2000/svg" xmlns:xlink="http://www.w3.org/1999/xlink"><g><path d="M35.491,98.938c-11.846,0-21.483-9.638-21.483-21.484c0-11.846,9.637-21.482,21.483-21.482   c11.847,0,21.484,9.637,21.484,21.482C56.976,89.3,47.338,98.938,35.491,98.938z M35.491,59.971   c-9.64,0-17.483,7.843-17.483,17.482c0,9.641,7.844,17.484,17.483,17.484c9.641,0,17.484-7.844,17.484-17.484   C52.976,67.813,45.132,59.971,35.491,59.971z"/><path d="M92.346,98.938c-11.846,0-21.483-9.638-21.483-21.484c0-11.846,9.638-21.482,21.483-21.482   c11.847,0,21.484,9.637,21.484,21.482C113.83,89.3,104.192,98.938,92.346,98.938z M92.346,59.971   c-9.641,0-17.483,7.843-17.483,17.482c0,9.641,7.843,17.484,17.483,17.484s17.484-7.844,17.484-17.484   C109.83,67.813,101.986,59.971,92.346,59.971z"/><g><path d="M17.976,70.566c-0.214,0-0.431-0.034-0.645-0.107c-1.046-0.355-1.605-1.492-1.249-2.537l10.964-32.196    c1.24-4.928,7.281-7.728,13.519-6.25c1.075,0.255,1.74,1.333,1.485,2.407c-0.255,1.076-1.334,1.736-2.407,1.485    c-4.068-0.964-8.066,0.584-8.729,3.379l-0.053,0.184L19.869,69.211C19.586,70.043,18.809,70.566,17.976,70.566z"/><path d="M109.714,70.566c-0.833,0-1.609-0.523-1.894-1.355L96.773,36.748c-0.301-1.272-1.3-2.336-2.812-2.997    c-1.709-0.746-3.812-0.88-5.917-0.382c-1.075,0.25-2.153-0.41-2.407-1.485c-0.255-1.075,0.41-2.152,1.485-2.407    c2.944-0.697,5.94-0.481,8.439,0.609c2.657,1.161,4.457,3.161,5.079,5.642l10.966,32.195c0.355,1.045-0.203,2.182-1.249,2.537    C110.146,70.532,109.928,70.566,109.714,70.566z"/></g></g><path d="M72.86,79.454c-0.306,0-0.615-0.07-0.906-0.219c-0.026-0.013-3.361-1.651-8.243-1.651c-4.813,0-7.711,1.588-7.738,1.604  c-0.958,0.551-2.181,0.221-2.731-0.737c-0.55-0.958-0.22-2.181,0.737-2.73c0.152-0.087,3.785-2.136,9.732-2.136  c5.894,0,9.893,2.002,10.06,2.088c0.984,0.502,1.375,1.705,0.874,2.689C74.291,79.055,73.589,79.454,72.86,79.454z"/></svg>